<?xml version="1.0" encoding="UTF-8" standalone="no"?>
<svg
   version="1.0"
   viewBox="0 0 128 128"
   id="svg10"
   width="128"
   height="128"
   xml:space="preserve"
   xmlns="http://www.w3.org/2000/svg"
   xmlns:svg="http://www.w3.org/2000/svg"><defs
     id="defs10" /><g
     fill="#ffffff"
     stroke-width="0"
     id="g4"
     transform="matrix(0.22188079,0,0,0.22188079,-47.525067,81.617049)"
     style="display:none"><g
       id="g11"><path
         d="m 80.5,81 -43,43 43.1,43 43,43.1 L 142.3,192 161,173.8 V 124 h -37 v 38.5 L 104.8,143.3 85.5,124 l 19,-19 19,-19 19,19 19.1,19 23.7,-0.2 L 209,123.5 166.3,80.7 123.5,38 Z M 649,118.5 V 161 h 6 v -11.4 c 0,-16.5 0.3,-16.6 13.7,-1.2 10.4,12.1 10.9,12.6 14.7,12.6 h 4 l -2.5,-2.8 c -3.6,-3.9 -18.1,-20.3 -20.3,-23 l -2,-2.3 11,-10.4 10.9,-10.4 h -4 c -3.8,-0.1 -4.6,0.5 -14,9.9 -5.5,5.5 -10.3,10 -10.7,10 -0.5,0 -0.8,-12.6 -0.8,-28 V 76 h -6 z M 513.5,83.2 c -0.2,0.7 -3.7,18.3 -7.8,39 l -7.3,37.8 h 3.2 c 2.3,0 3.4,-0.5 3.7,-1.8 0.3,-0.9 2.9,-14.1 5.8,-29.2 2.9,-15.1 5.6,-27.9 5.9,-28.3 0.4,-0.4 6.3,13.4 13.1,30.8 6.8,17.3 12.6,31.5 12.9,31.5 0.3,0 6.1,-14 13,-31.1 6.8,-17.1 12.7,-31.2 13,-31.4 0.3,-0.2 2.8,11 5.4,24.8 7.4,38.8 6.2,34.7 10.2,34.7 1.9,0 3.4,-0.3 3.4,-0.7 0,-1.1 -14,-73.5 -14.6,-75.6 -0.3,-0.9 -1.3,-1.7 -2.2,-1.7 -1.3,0 -4.7,7.6 -14,30.8 -12.3,30.8 -13.8,34.1 -14.5,33.2 -0.2,-0.3 -5.9,-14.7 -12.8,-32 -9,-22.8 -12.9,-31.6 -14.2,-31.8 -0.9,-0.2 -1.9,0.2 -2.2,1 m -250,1.1 c -14.9,5 -24.8,16.5 -27.5,31.9 -2,11.5 1.7,23.8 9.9,33 5.5,6.1 16.3,11.6 24.7,12.4 20.4,2.1 38.6,-12.1 40.2,-31.4 l 0.5,-6.2 H 278 v 6 h 26.2 l -0.7,3.7 c -1.5,8.5 -8.9,16.9 -17.4,19.8 -5.8,2 -16.5,1.9 -22.4,-0.1 -6.1,-2 -14.1,-9.3 -17.5,-15.8 -2.4,-4.5 -2.7,-6.2 -2.7,-15.1 0,-12 2.1,-17.2 9.7,-24.7 12.6,-12.3 33.5,-11.5 45.7,1.7 4.1,4.4 4.2,4.5 6.6,2.9 1.4,-0.9 2.5,-1.9 2.5,-2.3 0,-0.4 -2.4,-3 -5.2,-5.8 -7.7,-7.6 -15,-10.6 -26.3,-11 -5.6,-0.2 -10.5,0.2 -13,1 m 504.2,2.4 c 2,0.4 2.2,1.1 2.6,7.6 l 0.3,7.2 0.2,-7.2 c 0.2,-5.9 0.5,-7.2 2,-7.6 0.9,-0.3 -0.3,-0.5 -2.8,-0.4 -2.5,0 -3.5,0.2 -2.3,0.4 m 9.4,5.8 c -0.7,3.3 -1.4,6.6 -1.6,7.3 -0.3,0.7 -0.1,1.1 0.4,0.8 0.5,-0.4 1.2,-2.9 1.6,-5.6 0.4,-2.8 1,-4.8 1.3,-4.6 0.4,0.2 1.6,2.7 2.7,5.5 l 1.9,5 2.1,-4.9 c 2.9,-6.8 3.2,-6.9 4,-1.1 0.4,2.8 1,5.3 1.4,5.6 0.8,0.4 -1.3,-12.3 -2.2,-13.1 -0.2,-0.3 -1.5,2.1 -2.8,5.3 l -2.3,5.7 -2.7,-6 -2.6,-5.9 z m -446.9,21.1 c -9.4,4.7 -14.8,16.8 -12.3,27.9 2.7,12.2 11.9,20.1 23,19.9 6.3,-0.1 12.8,-2.9 15.9,-6.9 1.1,-1.4 2.3,-2.5 2.6,-2.5 0.3,0 0.6,2 0.6,4.5 0,4.3 0.1,4.5 3,4.5 h 3 v -49 h -3 c -2.8,0 -3,0.2 -3,4 0,4.6 -0.5,4.9 -3.1,1.6 -5.3,-6.7 -17.6,-8.6 -26.7,-4 m 18.5,3.9 c 5,2.1 7.2,4.2 9.4,9 2.1,4.5 2.4,11.1 0.9,16.7 -3.7,13.1 -19.7,17.2 -29.7,7.6 -4,-3.8 -5.6,-8.4 -5.5,-15.6 0.1,-14.2 12.4,-22.9 24.9,-17.7 m 38,-4.7 c -1.5,1 -3.4,2.7 -4.2,3.8 -1.4,1.8 -1.4,1.7 -1.5,-1.4 0,-3 -0.2,-3.2 -3.5,-3.2 H 374 v 48 h 7 v -16.9 c 0,-18.1 0.9,-22.5 5.2,-25.5 2.6,-1.8 9,-2.1 12,-0.5 3.9,2.1 4.8,6.7 4.8,25.4 V 160 h 7 v -17 c 0,-18.4 0.8,-22.3 5.1,-25.4 2.6,-1.8 9,-2.1 12,-0.6 4.2,2.3 4.9,5.9 4.9,25 v 18 h 7 v -17.6 c 0,-19.5 -0.8,-23.9 -5.1,-28 -5.6,-5.4 -17.7,-4.2 -22.6,2.2 l -2.6,3.5 -1.7,-2.9 c -3.5,-5.8 -14.5,-8.1 -20.3,-4.4 m 74.3,-0.2 c -19,8.2 -19.8,37.5 -1.4,46.5 5.9,2.8 14.2,3 20.6,0.6 5.7,-2.2 13.8,-10.4 11.7,-11.8 -2.4,-1.5 -3.9,-1 -6.6,2.1 -4.5,5.4 -11,7.5 -18.3,5.9 -7.9,-1.8 -12.8,-7.1 -14.3,-15.7 L 452.1,137 H 494 v -3.1 c 0,-8.4 -5.9,-17.6 -13.4,-21 -5,-2.3 -14.7,-2.4 -19.6,-0.3 m 19,5.7 c 3.6,2.4 6.4,6.5 7.5,10.9 l 0.7,2.8 h -17.6 c -19.1,0 -18.7,0.1 -16.5,-5.7 2.5,-6.7 8.3,-10.2 17,-10.3 4.2,0 6.4,0.6 8.9,2.3 m 125.4,-4.9 c -13.9,6.5 -17.8,26.2 -7.8,39.4 3.3,4.2 7.4,6.8 13.5,8.2 6.6,1.6 14.5,-0.7 19.4,-5.6 l 3.5,-3.5 v 4.6 c 0,4.5 0,4.5 3.5,4.5 h 3.5 v -49 h -3.5 c -3.4,0 -3.5,0.1 -3.5,4.2 v 4.2 l -3.2,-3.1 c -7.3,-6.9 -16.1,-8.2 -25.4,-3.9 m 19.2,4.5 c 9.6,4.4 13.1,18 7.4,29 -2.8,5.7 -7.2,8.4 -14.1,8.9 -11.5,0.8 -19.4,-7.3 -19.4,-19.8 0,-15.3 12.8,-24.1 26.1,-18.1"
         id="path3-0"
         style="display:inline" /><path
         d="m 701.5,112.9 c -18.7,8.6 -19.2,37.3 -0.9,46.2 5.9,2.8 14.2,3 20.6,0.6 5.7,-2.2 13.8,-10.4 11.7,-11.8 -2.4,-1.5 -3.9,-1 -6.6,2.1 -4.5,5.4 -11,7.5 -18.3,5.9 -7.9,-1.8 -12.8,-7.1 -14.3,-15.7 l -0.6,-3.2 h 42.2 l -0.6,-4.9 c -1.1,-8.9 -6.4,-16.4 -13.9,-19.5 -5.1,-2.2 -14.3,-2 -19.3,0.3 m 19.5,5.4 c 3.6,2.4 6.4,6.5 7.5,10.9 l 0.7,2.8 h -17.6 c -19.1,0 -18.7,0.1 -16.5,-5.7 2.5,-6.7 8.3,-10.2 17,-10.3 4.2,0 6.4,0.6 8.9,2.3 m 33.8,-5.7 c -1.5,0.8 -3.4,2.7 -4.2,4.2 l -1.5,2.7 -0.1,-3.8 c 0,-3.6 -0.1,-3.7 -3.5,-3.7 H 742 v 48 h 7 v -16.5 c 0,-17.5 0.7,-21.2 4.8,-24.9 1.5,-1.3 3.2,-1.7 6.1,-1.4 4.2,0.4 5.1,-0.4 5.1,-4.3 0,-1.5 -0.7,-1.9 -3.7,-1.9 -2.1,0.1 -5,0.7 -6.5,1.6"
         id="path4"
         style="display:inline" /><path
         d="m 80.5,81 -43,43 43.1,43 43,43.1 L 142.3,192 161,173.8 V 124 h -37 v 38.5 L 104.8,143.3 85.5,124 l 19,-19 19,-19 19,19 19.1,19 23.7,-0.2 L 209,123.5 166.3,80.7 123.5,38 Z M 649,118.5 V 161 h 6 v -11.4 c 0,-16.5 0.3,-16.6 13.7,-1.2 10.4,12.1 10.9,12.6 14.7,12.6 h 4 l -2.5,-2.8 c -3.6,-3.9 -18.1,-20.3 -20.3,-23 l -2,-2.3 11,-10.4 10.9,-10.4 h -4 c -3.8,-0.1 -4.6,0.5 -14,9.9 -5.5,5.5 -10.3,10 -10.7,10 -0.5,0 -0.8,-12.6 -0.8,-28 V 76 h -6 z M 513.5,83.2 c -0.2,0.7 -3.7,18.3 -7.8,39 l -7.3,37.8 h 3.2 c 2.3,0 3.4,-0.5 3.7,-1.8 0.3,-0.9 2.9,-14.1 5.8,-29.2 2.9,-15.1 5.6,-27.9 5.9,-28.3 0.4,-0.4 6.3,13.4 13.1,30.8 6.8,17.3 12.6,31.5 12.9,31.5 0.3,0 6.1,-14 13,-31.1 6.8,-17.1 12.7,-31.2 13,-31.4 0.3,-0.2 2.8,11 5.4,24.8 7.4,38.8 6.2,34.7 10.2,34.7 1.9,0 3.4,-0.3 3.4,-0.7 0,-1.1 -14,-73.5 -14.6,-75.6 -0.3,-0.9 -1.3,-1.7 -2.2,-1.7 -1.3,0 -4.7,7.6 -14,30.8 -12.3,30.8 -13.8,34.1 -14.5,33.2 -0.2,-0.3 -5.9,-14.7 -12.8,-32 -9,-22.8 -12.9,-31.6 -14.2,-31.8 -0.9,-0.2 -1.9,0.2 -2.2,1 m -250,1.1 c -14.9,5 -24.8,16.5 -27.5,31.9 -2,11.5 1.7,23.8 9.9,33 5.5,6.1 16.3,11.6 24.7,12.4 20.4,2.1 38.6,-12.1 40.2,-31.4 l 0.5,-6.2 H 278 v 6 h 26.2 l -0.7,3.7 c -1.5,8.5 -8.9,16.9 -17.4,19.8 -5.8,2 -16.5,1.9 -22.4,-0.1 -6.1,-2 -14.1,-9.3 -17.5,-15.8 -2.4,-4.5 -2.7,-6.2 -2.7,-15.1 0,-12 2.1,-17.2 9.7,-24.7 12.6,-12.3 33.5,-11.5 45.7,1.7 4.1,4.4 4.2,4.5 6.6,2.9 1.4,-0.9 2.5,-1.9 2.5,-2.3 0,-0.4 -2.4,-3 -5.2,-5.8 -7.7,-7.6 -15,-10.6 -26.3,-11 -5.6,-0.2 -10.5,0.2 -13,1 m 504.2,2.4 c 2,0.4 2.2,1.1 2.6,7.6 l 0.3,7.2 0.2,-7.2 c 0.2,-5.9 0.5,-7.2 2,-7.6 0.9,-0.3 -0.3,-0.5 -2.8,-0.4 -2.5,0 -3.5,0.2 -2.3,0.4 m 9.4,5.8 c -0.7,3.3 -1.4,6.6 -1.6,7.3 -0.3,0.7 -0.1,1.1 0.4,0.8 0.5,-0.4 1.2,-2.9 1.6,-5.6 0.4,-2.8 1,-4.8 1.3,-4.6 0.4,0.2 1.6,2.7 2.7,5.5 l 1.9,5 2.1,-4.9 c 2.9,-6.8 3.2,-6.9 4,-1.1 0.4,2.8 1,5.3 1.4,5.6 0.8,0.4 -1.3,-12.3 -2.2,-13.1 -0.2,-0.3 -1.5,2.1 -2.8,5.3 l -2.3,5.7 -2.7,-6 -2.6,-5.9 z m -446.9,21.1 c -9.4,4.7 -14.8,16.8 -12.3,27.9 2.7,12.2 11.9,20.1 23,19.9 6.3,-0.1 12.8,-2.9 15.9,-6.9 1.1,-1.4 2.3,-2.5 2.6,-2.5 0.3,0 0.6,2 0.6,4.5 0,4.3 0.1,4.5 3,4.5 h 3 v -49 h -3 c -2.8,0 -3,0.2 -3,4 0,4.6 -0.5,4.9 -3.1,1.6 -5.3,-6.7 -17.6,-8.6 -26.7,-4 m 18.5,3.9 c 5,2.1 7.2,4.2 9.4,9 2.1,4.5 2.4,11.1 0.9,16.7 -3.7,13.1 -19.7,17.2 -29.7,7.6 -4,-3.8 -5.6,-8.4 -5.5,-15.6 0.1,-14.2 12.4,-22.9 24.9,-17.7 m 38,-4.7 c -1.5,1 -3.4,2.7 -4.2,3.8 -1.4,1.8 -1.4,1.7 -1.5,-1.4 0,-3 -0.2,-3.2 -3.5,-3.2 H 374 v 48 h 7 v -16.9 c 0,-18.1 0.9,-22.5 5.2,-25.5 2.6,-1.8 9,-2.1 12,-0.5 3.9,2.1 4.8,6.7 4.8,25.4 V 160 h 7 v -17 c 0,-18.4 0.8,-22.3 5.1,-25.4 2.6,-1.8 9,-2.1 12,-0.6 4.2,2.3 4.9,5.9 4.9,25 v 18 h 7 v -17.6 c 0,-19.5 -0.8,-23.9 -5.1,-28 -5.6,-5.4 -17.7,-4.2 -22.6,2.2 l -2.6,3.5 -1.7,-2.9 c -3.5,-5.8 -14.5,-8.1 -20.3,-4.4 m 74.3,-0.2 c -19,8.2 -19.8,37.5 -1.4,46.5 5.9,2.8 14.2,3 20.6,0.6 5.7,-2.2 13.8,-10.4 11.7,-11.8 -2.4,-1.5 -3.9,-1 -6.6,2.1 -4.5,5.4 -11,7.5 -18.3,5.9 -7.9,-1.8 -12.8,-7.1 -14.3,-15.7 L 452.1,137 H 494 v -3.1 c 0,-8.4 -5.9,-17.6 -13.4,-21 -5,-2.3 -14.7,-2.4 -19.6,-0.3 m 19,5.7 c 3.6,2.4 6.4,6.5 7.5,10.9 l 0.7,2.8 h -17.6 c -19.1,0 -18.7,0.1 -16.5,-5.7 2.5,-6.7 8.3,-10.2 17,-10.3 4.2,0 6.4,0.6 8.9,2.3 m 125.4,-4.9 c -13.9,6.5 -17.8,26.2 -7.8,39.4 3.3,4.2 7.4,6.8 13.5,8.2 6.6,1.6 14.5,-0.7 19.4,-5.6 l 3.5,-3.5 v 4.6 c 0,4.5 0,4.5 3.5,4.5 h 3.5 v -49 h -3.5 c -3.4,0 -3.5,0.1 -3.5,4.2 v 4.2 l -3.2,-3.1 c -7.3,-6.9 -16.1,-8.2 -25.4,-3.9 m 19.2,4.5 c 9.6,4.4 13.1,18 7.4,29 -2.8,5.7 -7.2,8.4 -14.1,8.9 -11.5,0.8 -19.4,-7.3 -19.4,-19.8 0,-15.3 12.8,-24.1 26.1,-18.1"
         id="path12"
         style="display:none;stroke-width:5.8701;stroke-dasharray:none;paint-order:fill markers stroke" /></g></g><g
     id="g10"
     transform="translate(265.07495,-167.52591)"
     style="stroke:#ffffff;stroke-opacity:0"><path
       d="m -232.97947,199.52267 -32.09109,31.96607 32.16572,31.96606 32.0911,32.04041 13.95589,-13.45549 13.9559,-13.52982 v -37.02116 h -27.61327 v 28.62078 l -14.32905,-14.27322 -14.40368,-14.34756 14.17979,-14.12454 14.17979,-14.12454 14.17978,14.12454 14.25442,14.12454 17.68742,-0.14868 17.68741,-0.22302 -31.8672,-31.81739 -31.94183,-31.74304 z"
       id="path3"
       style="fill:#ffffff;fill-opacity:1;fill-rule:nonzero;stroke:#ffffff;stroke-width:0.745;stroke-dasharray:none;stroke-opacity:0;paint-order:markers fill stroke" /></g><g
     id="g12"
     transform="translate(-271.55,-237.25)"
     style="display:none"><path
       fill="#ffffff"
       d="m 311.95639,260.98158 -23.73159,23.73159 23.78678,23.73158 23.73158,23.78677 10.32048,-9.98934 10.32048,-10.04453 v -27.48448 h -20.4202 v 21.24804 l -10.59643,-10.59643 -10.65161,-10.65161 10.48605,-10.48605 10.48604,-10.48605 10.48605,10.48605 10.54124,10.48605 13.07997,-0.11038 13.07997,-0.16557 L 359.30918,260.81601 335.68797,237.25 Z"
       id="path3-1"
       style="stroke-width:0.551897" /></g></svg>
